<?xml version="1.0" encoding="utf-8"?>
<!-- Generator: Adobe Illustrator 24.2.3, SVG Export Plug-In . SVG Version: 6.00 Build 0)  -->
<svg version="1.1" id="Layer_1" xmlns="http://www.w3.org/2000/svg" xmlns:xlink="http://www.w3.org/1999/xlink" x="0px" y="0px"
	 viewBox="0 0 148.31 33.11" style="enable-background:new 0 0 148.31 33.11;" xml:space="preserve">
<style type="text/css">
	.st0{fill:#FFFFFF;}
</style>
<g>
	<path class="st0" d="M6.96,24.34c-0.04,0.08-0.13,0.13-0.21,0.13H0.24c-0.09,0-0.17-0.05-0.21-0.13c-0.04-0.08-0.04-0.17,0.01-0.25
		l1.03-1.53V3.07L0.21,1.96C0.16,1.89,0.15,1.8,0.17,1.73C0.2,1.65,0.27,1.59,0.35,1.57l5.26-1.16c0.07-0.01,0.15,0,0.2,0.05
		c0.06,0.05,0.09,0.11,0.09,0.19v21.87l1.04,1.57C7,24.17,7,24.26,6.96,24.34z"/>
	<path class="st0" d="M18.13,23.58c0.02,0.1-0.02,0.2-0.1,0.26c-0.21,0.14-0.43,0.26-0.65,0.38c-0.83,0.43-1.69,0.65-2.62,0.65
		c-0.57,0-1.1-0.08-1.58-0.22c-0.46-0.14-0.86-0.35-1.2-0.61c-0.32-0.26-0.57-0.56-0.75-0.93c-0.18-0.36-0.27-0.79-0.27-1.28
		c0-0.79,0.22-1.48,0.66-2.09c0.46-0.65,1.11-1.22,1.91-1.7c0.76-0.46,1.65-0.84,2.64-1.14c0.1-0.03,0.21,0.01,0.27,0.1
		c0.06,0.09,0.05,0.2-0.01,0.29c-0.67,0.82-1.02,1.81-1.02,2.93c0,0.88,0.22,1.62,0.66,2.21c0.29,0.39,0.84,0.87,1.85,0.97
		C18.02,23.41,18.11,23.49,18.13,23.58z M26.63,23.5c-0.03,0.08-0.09,0.13-0.17,0.15l-4.87,1.05c-0.02,0-0.04,0.01-0.05,0.01
		c-0.11,0-0.2-0.07-0.23-0.18l-0.63-2.39c0-0.02-0.01-0.04-0.01-0.06v-8.88c0-1.23-0.41-2.21-1.21-2.91
		c-0.74-0.65-1.8-0.98-3.23-1.02c-0.12,0-0.22-0.09-0.23-0.21c-0.02-0.12,0.05-0.23,0.16-0.26c0.4-0.13,0.83-0.24,1.26-0.33
		c0.75-0.15,1.56-0.23,2.39-0.23c1.2,0,2.19,0.13,2.94,0.39c0.71,0.25,1.27,0.6,1.67,1.03c0.4,0.44,0.67,0.97,0.83,1.6
		c0.17,0.69,0.25,1.47,0.25,2.33v8.2l1.11,1.49C26.65,23.34,26.66,23.42,26.63,23.5z"/>
	<path class="st0" d="M39.93,23.73c0.02,0.1-0.02,0.21-0.11,0.26l-0.1,0.05c-0.43,0.25-0.92,0.45-1.45,0.6
		c-0.52,0.15-1.1,0.23-1.72,0.23c-0.9,0-1.72-0.18-2.43-0.54c-0.73-0.36-1.33-0.86-1.85-1.51c-0.52-0.66-0.93-1.47-1.21-2.39
		c-0.29-0.94-0.44-2-0.44-3.14c0-1.33,0.21-2.58,0.62-3.7c0.4-1.11,0.99-2.07,1.74-2.87c0.75-0.79,1.67-1.42,2.74-1.86
		c0.47-0.2,0.98-0.35,1.51-0.46c0.1-0.02,0.2,0.02,0.26,0.11c0.05,0.09,0.04,0.2-0.03,0.28c-0.26,0.3-0.5,0.66-0.71,1.06
		c-0.71,1.39-1.06,3.34-1.06,5.96c0,2.46,0.33,4.28,1,5.58c0.68,1.3,1.72,2.04,3.02,2.14C39.82,23.55,39.91,23.63,39.93,23.73z
		 M48.97,23.5c-0.03,0.08-0.1,0.13-0.17,0.15l-4.88,1.05c-0.02,0.01-0.04,0.01-0.05,0.01c-0.11,0-0.2-0.07-0.23-0.18L43,22.18
		C43,22.16,43,22.14,43,22.12l-0.01-11.25L43,9.64V3.07l-0.88-1.12c-0.05-0.07-0.06-0.15-0.04-0.23c0.03-0.08,0.09-0.14,0.17-0.16
		l5.28-1.16c0.07-0.02,0.14,0,0.2,0.05c0.06,0.05,0.09,0.11,0.09,0.19v21.15l1.11,1.49C48.99,23.34,49,23.42,48.97,23.5z"/>
	<path class="st0" d="M62.99,19.75c0.02,0.06,0.02,0.13-0.01,0.18l-2.17,4.94c-0.04,0.09-0.13,0.14-0.22,0.14
		c-0.1,0-0.18-0.06-0.22-0.14l-6.4-14.45L53,9.02c-0.05-0.07-0.06-0.17-0.02-0.25c0.04-0.08,0.13-0.13,0.22-0.13h7.1
		c0.09,0,0.17,0.05,0.21,0.12c0.04,0.07,0.04,0.17,0,0.24l-1.01,1.74L62.99,19.75z M58.19,29.66c0.06,0.08,0.07,0.19,0.01,0.28
		c-0.46,0.7-0.89,1.29-1.28,1.76c-0.5,0.6-0.95,1.05-1.32,1.32c-0.02,0.01-0.04,0.03-0.06,0.04c-0.04,0.03-0.09,0.04-0.14,0.04
		c-0.02,0-0.04,0-0.05-0.01c-0.07-0.02-0.12-0.06-0.16-0.12l-1.4-2.56c-0.04-0.07-0.04-0.16,0-0.23c0.04-0.07,0.12-0.12,0.2-0.12
		c0.2-0.01,0.42-0.01,0.64-0.02c0.41-0.02,0.85-0.05,1.32-0.1c0.47-0.05,0.95-0.13,1.41-0.23c0.19-0.04,0.38-0.09,0.56-0.15
		C58.02,29.55,58.13,29.58,58.19,29.66z M68.3,9.03l-0.66,0.81c-0.05,0.06-0.11,0.09-0.19,0.09c0,0-0.01,0-0.01,0
		c-0.08-0.01-0.15-0.05-0.19-0.11l-0.51-0.81c-0.05-0.07-0.05-0.17-0.01-0.25c0.04-0.08,0.12-0.13,0.21-0.13h1.17
		c0.1,0,0.18,0.05,0.22,0.14C68.37,8.86,68.36,8.96,68.3,9.03z"/>
	<path class="st0" d="M86.6,8.44c0.05,0.05,0.09,0.11,0.09,0.19v14.15c0,1.15-0.19,2.21-0.58,3.16c-0.38,0.95-0.93,1.8-1.64,2.52
		c-0.72,0.73-1.59,1.37-2.61,1.89c-0.29,0.15-0.6,0.29-0.9,0.41c-0.03,0.01-0.06,0.02-0.09,0.02c-0.07,0-0.14-0.03-0.19-0.08
		c-0.07-0.08-0.08-0.19-0.02-0.28c0.16-0.25,0.3-0.52,0.43-0.79c0.51-1.08,0.77-2.42,0.77-3.97V11.04l-0.95-1.11
		c-0.05-0.07-0.07-0.15-0.04-0.23c0.03-0.08,0.09-0.14,0.18-0.16l5.36-1.15C86.47,8.38,86.55,8.39,86.6,8.44z M81.51,3.47
		c-0.13-0.3-0.19-0.63-0.19-1.01c0-0.36,0.06-0.68,0.19-0.98c0.13-0.3,0.3-0.55,0.54-0.77c0.24-0.22,0.51-0.4,0.84-0.52
		C83.22,0.06,83.6,0,84.02,0c0.41,0,0.78,0.07,1.11,0.2c0.33,0.13,0.61,0.3,0.84,0.53c0.23,0.22,0.41,0.48,0.54,0.78
		c0.13,0.29,0.19,0.61,0.19,0.96c0,0.38-0.06,0.71-0.19,1.01c-0.13,0.3-0.31,0.55-0.53,0.76c-0.23,0.22-0.51,0.38-0.84,0.51
		c-0.33,0.13-0.71,0.19-1.12,0.19c-0.41,0-0.78-0.06-1.12-0.19c-0.34-0.13-0.62-0.29-0.86-0.51C81.82,4.02,81.64,3.77,81.51,3.47z"
		/>
	<path class="st0" d="M97.83,23.58c0.02,0.1-0.02,0.2-0.1,0.26c-0.21,0.14-0.43,0.26-0.65,0.38c-0.83,0.43-1.69,0.65-2.62,0.65
		c-0.57,0-1.1-0.08-1.58-0.22c-0.46-0.14-0.86-0.35-1.2-0.61c-0.32-0.26-0.57-0.56-0.75-0.93c-0.18-0.36-0.27-0.79-0.27-1.28
		c0-0.79,0.22-1.48,0.66-2.09c0.46-0.65,1.11-1.22,1.91-1.7c0.76-0.46,1.65-0.84,2.64-1.14c0.1-0.03,0.21,0.01,0.27,0.1
		c0.06,0.09,0.05,0.2-0.01,0.29c-0.67,0.82-1.02,1.81-1.02,2.93c0,0.88,0.22,1.62,0.66,2.21c0.29,0.39,0.84,0.87,1.85,0.97
		C97.72,23.41,97.8,23.49,97.83,23.58z M106.32,23.5c-0.03,0.08-0.09,0.13-0.17,0.15l-4.87,1.05c-0.02,0-0.04,0.01-0.05,0.01
		c-0.11,0-0.2-0.07-0.23-0.18l-0.63-2.39c0-0.02-0.01-0.04-0.01-0.06v-8.88c0-1.23-0.41-2.21-1.21-2.91
		c-0.74-0.65-1.8-0.98-3.23-1.02c-0.12,0-0.22-0.09-0.23-0.21c-0.02-0.12,0.05-0.23,0.16-0.26c0.4-0.13,0.83-0.24,1.26-0.33
		c0.75-0.15,1.56-0.23,2.39-0.23c1.2,0,2.19,0.13,2.94,0.39c0.71,0.25,1.27,0.6,1.67,1.03c0.4,0.44,0.67,0.97,0.83,1.6
		c0.17,0.69,0.25,1.47,0.25,2.33v8.2l1.11,1.49C106.34,23.34,106.35,23.42,106.32,23.5z"/>
	<path class="st0" d="M117.2,24.1c0.05,0.07,0.05,0.17,0.01,0.24c-0.04,0.08-0.13,0.13-0.21,0.13h-6.43c-0.09,0-0.17-0.05-0.21-0.13
		c-0.04-0.08-0.04-0.17,0.01-0.25l1.03-1.53V11.04l-0.95-1.11c-0.06-0.07-0.07-0.15-0.05-0.23c0.03-0.08,0.1-0.14,0.18-0.16
		l5.36-1.15c0.07-0.01,0.14,0,0.2,0.05c0.06,0.05,0.09,0.11,0.09,0.19v13.88L117.2,24.1z M128.72,24.34
		c-0.04,0.08-0.12,0.13-0.21,0.13h-6.44c-0.09,0-0.17-0.05-0.21-0.13c-0.04-0.08-0.04-0.17,0.01-0.25l0.97-1.55v-9.98
		c0-0.96-0.27-1.75-0.79-2.35c-0.45-0.52-1.06-0.83-1.81-0.92c-0.11-0.01-0.19-0.1-0.21-0.2c-0.02-0.11,0.04-0.21,0.14-0.26
		c0.41-0.18,0.84-0.32,1.28-0.43c0.52-0.13,1.08-0.2,1.65-0.2c0.66,0,1.27,0.1,1.84,0.31c0.55,0.2,1.04,0.49,1.44,0.86
		c0.4,0.37,0.72,0.79,0.95,1.3c0.23,0.5,0.34,1.07,0.34,1.69v10.17l1.05,1.57C128.76,24.17,128.76,24.26,128.72,24.34z"/>
	<path class="st0" d="M145.85,23.03c0.05,0.1,0.01,0.22-0.08,0.29c-0.22,0.17-0.46,0.32-0.7,0.47c-0.6,0.35-1.27,0.62-1.99,0.81
		c-0.74,0.19-1.58,0.28-2.49,0.28c-1.21,0-2.31-0.2-3.28-0.6c-0.96-0.39-1.79-0.95-2.46-1.65c-0.68-0.71-1.2-1.56-1.57-2.54
		c-0.37-0.99-0.56-2.09-0.56-3.28c0-1.27,0.21-2.46,0.61-3.52c0.4-1.05,0.98-1.96,1.71-2.71c0.73-0.75,1.62-1.34,2.65-1.76
		c0.23-0.1,0.48-0.18,0.73-0.26c0.1-0.03,0.2,0,0.26,0.08c0.06,0.08,0.07,0.18,0.02,0.27c-0.15,0.26-0.29,0.57-0.4,0.9
		c-0.21,0.61-0.37,1.36-0.47,2.23c-0.11,0.84-0.16,1.8-0.17,2.86l-0.01,0.56c0,0.01,0,0.01,0,0.02c-0.01,0.07-0.01,0.15-0.01,0.25
		l0.01,0.13l0,0.05c0,0.01,0.01,0.02,0.01,0.04c0.06,1.08,0.23,2.04,0.51,2.86c0.31,0.9,0.73,1.67,1.26,2.3
		c0.55,0.64,1.21,1.14,1.98,1.46c0.75,0.32,1.6,0.48,2.52,0.48c0.55,0,1.08-0.05,1.56-0.14l0.09-0.02
		C145.69,22.87,145.81,22.92,145.85,23.03z M148.25,14.68c-0.05,0.05-0.11,0.08-0.18,0.08h-4.14c-0.13,0-0.24-0.11-0.24-0.24
		c0-1.15-0.04-2.13-0.12-2.93c-0.08-0.86-0.22-1.55-0.41-2.1c-0.09-0.27-0.2-0.51-0.32-0.72c-0.05-0.08-0.04-0.19,0.02-0.26
		c0.06-0.08,0.15-0.11,0.25-0.09c0.39,0.09,0.77,0.21,1.12,0.36c0.88,0.38,1.64,0.9,2.25,1.54c0.61,0.65,1.08,1.42,1.4,2.3
		c0.22,0.6,0.37,1.23,0.44,1.88C148.32,14.56,148.3,14.63,148.25,14.68z"/>
</g>
</svg>
