<?xml version="1.0" encoding="utf-8"?>
<!-- Generator: Adobe Illustrator 24.2.3, SVG Export Plug-In . SVG Version: 6.00 Build 0)  -->
<svg version="1.1" id="Layer_1" xmlns="http://www.w3.org/2000/svg" xmlns:xlink="http://www.w3.org/1999/xlink" x="0px" y="0px"
	 viewBox="0 0 705.64 80.47" style="enable-background:new 0 0 705.64 80.47;" xml:space="preserve">
<style type="text/css">
	.st0{fill:none;}
	.st1{filter:url(#Adobe_OpacityMaskFilter);}
	.st2{fill-rule:evenodd;clip-rule:evenodd;fill:#FFFFFF;}
	.st3{mask:url(#mask-2_2_);fill-rule:evenodd;clip-rule:evenodd;}
	.st4{fill-rule:evenodd;clip-rule:evenodd;}
</style>
<path class="st0" d="M691.23,13.57c-2.2-20.1-27.4-18.6-32.2-18.6h-10.1v41.5c4.3,0.2,7.6,0.2,11.9,0.2
	C665.93,36.67,693.83,37.37,691.23,13.57L691.23,13.57z M510.03-5.63c-28.7,0-44.9,21.2-44.9,47.1c0,26.1,16.2,47.1,44.9,47.1
	s44.9-21.2,44.9-47.1C554.93,15.37,538.53-5.63,510.03-5.63L510.03-5.63z M183.73-4.33h-10.8v44.3h12.7c11.4,0,34.8-1.1,33.5-23.5
	C218.33-6.43,188.73-4.33,183.73-4.33z M822.93-0.23l-19.4,60.7l39.9-0.2l-20.3-60.5"/>
<g id="Icons">
	<g id="_x30_2-Logos" transform="translate(-73.000000, -383.000000)">
		<g id="Logo-_x2F_-Horizontal-Color" transform="translate(73.000000, 383.000000)">
			<g id="Group">
				<g id="Group-3">
					<defs>
						<filter id="Adobe_OpacityMaskFilter" filterUnits="userSpaceOnUse" x="0" y="0.28" width="61.11" height="79.82">
							<feColorMatrix  type="matrix" values="1 0 0 0 0  0 1 0 0 0  0 0 1 0 0  0 0 0 1 0"/>
						</filter>
					</defs>
					<mask maskUnits="userSpaceOnUse" x="0" y="0.28" width="61.11" height="79.82" id="mask-2_2_">
						<g class="st1">
							<polygon id="path-1_2_" class="st2" points="0,0.28 61.11,0.28 61.11,80.1 0,80.1 							"/>
						</g>
					</mask>
					<path id="Fill-1" class="st3" d="M49.16,21.8c-3.95-3.02-9-5.03-14.26-5.03c-3.95,0-9.22,2.11-9.22,6.33
						c0,4.42,5.82,6.13,9.55,7.24l5.49,1.51c11.52,3.12,20.41,8.45,20.41,20.71c0,7.54-1.97,15.28-8.56,20.41
						c-6.47,5.03-15.14,7.14-23.48,7.14C18.65,80.1,8.45,76.89,0,71.46l9.22-15.88c5.38,4.32,11.74,7.84,19.09,7.84
						c5.05,0,10.42-2.31,10.42-7.64c0-5.53-8.45-7.44-13.06-8.65c-13.5-3.52-22.38-6.74-22.38-21.41
						c0-15.38,11.96-25.43,28.53-25.43c8.34,0,18.54,2.41,25.89,6.23L49.16,21.8z"/>
				</g>
				<path id="Fill-4" class="st4" d="M102.46,27h-0.22l-8.91,24.63h17.93L102.46,27z M87.4,67.03l-5.72,13.44H58.8L90.69,3.09h23.53
					l31.23,77.37h-22.98l-5.39-13.44H87.4z"/>
				<polygon id="Fill-6" class="st4" points="175.86,63.43 201.17,63.43 201.17,80.47 154.75,80.47 154.75,3.09 175.86,3.09 				"/>
				<polygon id="Fill-8" class="st4" points="231.56,63.43 256.88,63.43 256.88,80.47 210.45,80.47 210.45,3.09 231.56,3.09 				"/>
				<polygon id="Fill-10" class="st4" points="244.5,3.09 269.64,3.09 284.73,24.13 299.82,3.09 324.97,3.09 295.22,43.32 
					295.22,80.47 274.24,80.47 274.24,43.32 				"/>
				<path id="Fill-12" class="st4" d="M348.61,75.85h12.16c5.61,0,11.42,0.21,16.29-2.98c4.86-3.18,7.83-8,7.83-13.75
					c0-5.64-2.86-11.29-8.25-13.85c-4.86-2.36-11.53-2.46-16.81-2.46h-11.21V75.85z M348.61,38.19h8.78c5.39,0,9.73,0.31,14.28-2.87
					c4.55-3.18,5.92-7.08,5.92-12.42c0-5.03-2.01-9.95-6.56-12.72c-4.02-2.46-8.99-2.46-13.64-2.46h-8.78V38.19z M343.53,80.47V3.09
					h15.97c6.03,0,11.74,0.41,16.5,4.51c4.86,4.1,6.66,9.85,6.66,16.01c0,7.08-2.86,12.31-9.2,15.8c9.84,1.95,16.5,9.65,16.5,19.5
					c0,6.26-2.43,11.9-7.4,16.01c-5.6,4.62-11.53,5.54-18.61,5.54H343.53z"/>
				<polygon id="Fill-14" class="st4" points="410.8,7.71 410.8,35.83 444.77,35.83 444.77,40.45 410.8,40.45 410.8,75.85 
					445.67,75.85 445.67,80.47 405.43,80.47 405.43,3.09 445.67,3.09 445.67,7.71 				"/>
				<path id="Fill-16" class="st4" d="M576.62,3.09h5.22v47.6c0,7.8,0,14.48-5.55,20.86c-5.55,5.87-14.04,8.91-22.31,8.91
					c-8.27,0-16.76-3.04-22.3-8.91c-5.55-6.38-5.55-13.06-5.55-20.86V3.09h5.22v46.18c0,6.89,0,14.18,4.24,19.24
					c4.03,4.86,12.08,7.39,18.39,7.39c6.31,0,14.36-2.53,18.39-7.39c4.24-5.06,4.24-12.36,4.24-19.24V3.09z"/>
				<polygon id="Fill-18" class="st4" points="613.79,80.47 608.7,80.47 608.7,7.71 588.03,7.71 588.03,3.09 634.46,3.09 
					634.46,7.71 613.79,7.71 				"/>
				<polygon id="Fill-20" class="st4" points="646.84,3.09 652.5,3.09 676.24,42.29 699.97,3.09 705.64,3.09 678.8,47.42 
					678.8,80.47 673.67,80.47 673.67,47.42 				"/>
				<path id="Fill-22" class="st4" d="M469.98,47.34L485.95,8.8l15.86,38.54H469.98z M487.51,0h-3.12l-32.54,77.37h5.29l10.9-25.42
					h35.72l10.9,25.42h5.29L487.51,0z"/>
				<path id="Fill-24" class="st4" d="M697.74,72.18c0.63,0,1.73,0.12,1.73-0.69c0-0.52-0.69-0.62-1.23-0.62h-1.35v1.31H697.74z
					 M700.1,75.24h-0.85l-1.52-2.35h-0.85v2.35h-0.71v-5.08h2.2c0.91,0,1.8,0.25,1.8,1.35c0,1-0.7,1.37-1.6,1.39L700.1,75.24z
					 M701.83,72.73c0-2.19-1.81-3.93-3.93-3.93c-2.12,0-3.93,1.74-3.93,3.93s1.81,3.93,3.93,3.93
					C700.02,76.66,701.83,74.92,701.83,72.73z M693.26,72.73c0-2.58,2.05-4.64,4.64-4.64c2.59,0,4.64,2.06,4.64,4.64
					c0,2.58-2.05,4.64-4.64,4.64C695.31,77.37,693.26,75.31,693.26,72.73z"/>
			</g>
		</g>
	</g>
</g>
</svg>
