<?xml version="1.0" encoding="utf-8"?>
<!-- Generator: Adobe Illustrator 24.2.3, SVG Export Plug-In . SVG Version: 6.00 Build 0)  -->
<svg version="1.1" id="Layer_1" xmlns="http://www.w3.org/2000/svg" xmlns:xlink="http://www.w3.org/1999/xlink" x="0px" y="0px"
	 viewBox="0 0 557.92 72.31" style="enable-background:new 0 0 557.92 72.31;" xml:space="preserve">
<style type="text/css">
	.st0{fill:none;}
</style>
<path class="st0" d="M591.56,8.25c-2.2-20.1-27.4-18.6-32.2-18.6h-10.1v41.5c4.3,0.2,7.6,0.2,11.9,0.2
	C566.26,31.35,594.16,32.05,591.56,8.25L591.56,8.25z M410.36-10.95c-28.7,0-44.9,21.2-44.9,47.1c0,26.1,16.2,47.1,44.9,47.1
	s44.9-21.2,44.9-47.1C455.26,10.05,438.86-10.95,410.36-10.95L410.36-10.95z M84.06-9.65h-10.8v44.3h12.7c11.4,0,34.8-1.1,33.5-23.5
	C118.66-11.75,89.06-9.65,84.06-9.65z M723.26-5.55l-19.4,60.7l39.9-0.2l-20.3-60.5"/>
<path d="M275.28,29.07h-35.04V2.18h-10.6v68.29h10.6V38.11h35.04v32.36h10.49V2.18h-10.49 M171.9,1.95
	c-3.85-0.11-11.66-0.11-18.58-0.11v68.57h10.71v-26c2.68,0,8.2-0.22,12.66-0.33c6.25-0.11,22.54-3.24,22.43-22.04
	C199.29,0.84,175.8,1.95,171.9,1.95L171.9,1.95z M171.34,35.32h-7.09V10.6h6.03c2.79,0,19.25-1.23,19.75,11.55
	C190.7,34.7,177.7,35.32,171.34,35.32L171.34,35.32z M73.03,1.84l0.11,68.57h43.02v-8.93h-32.3V38.22h22.87c0-1.95-0.11-4.8,0-8.54
	H83.86V10.99h32.3c-0.11-5.41,0-9.15,0-9.15L73.03,1.84L73.03,1.84z M10.49,18.58c0-11.21,14.84-11.66,23.6-4.46
	c3.01-8.65,3.24-9.26,3.24-9.26C11.77-7.42,0.11,8.82,0.11,19.19c0,24.83,35.21,19.53,30.13,36.99c-1.79,6.36-13.11,9.99-26.17,2.06
	C3.12,60.93,1.56,64.16,0,67.4c17.24,9.04,39.61,4.69,40.34-13.95C41.34,30.02,10.49,31.69,10.49,18.58L10.49,18.58z M462.63,21.09
	c-1.56-20.36-21.31-18.8-25.66-19.03c-3.63-0.11-11.33-0.22-17.97-0.22V70.3h10.71V41.51c3.63,0,4.8,0,10.27-0.22l19.53,29.01h13
	l-21.59-30.8C456.72,37.38,463.47,32.42,462.63,21.09z M436.35,33.48c-2.4,0-4.24,0-6.64-0.11V10.21h5.64
	c2.68,0,16.74-0.84,17.97,10.38C454.82,33.87,439.25,33.48,436.35,33.48L436.35,33.48z M533.32,1.95h-12.39l-22.43,68.57h10.6
	c3.35-12.39,4.46-15.9,4.46-15.9l27.73-0.11c3.24,9.15,5.64,16.12,5.64,16.12h10.99L533.32,1.95L533.32,1.95z M516.02,46.75
	l10.82-33.87h0.11l11.33,33.75L516.02,46.75z M352.27,0c-21.81,0-36.04,16.12-36.04,36.15s14.23,36.15,36.04,36.15
	s36.04-16.12,36.04-36.15S374.09,0,352.27,0z M352.27,62.43c-16.01,0-25.05-11.66-25.05-26.28c0-14.45,9.04-26.28,25.05-26.28
	c15.9,0,25.05,11.66,25.05,26.28C377.32,50.6,368.29,62.43,352.27,62.43z"/>
</svg>
