<?xml version="1.0" encoding="utf-8"?>
<!-- Generator: Adobe Illustrator 24.2.3, SVG Export Plug-In . SVG Version: 6.00 Build 0)  -->
<svg version="1.1" id="Layer_1" xmlns="http://www.w3.org/2000/svg" xmlns:xlink="http://www.w3.org/1999/xlink" x="0px" y="0px"
	 viewBox="0 0 356.11 72.84" style="enable-background:new 0 0 356.11 72.84;" xml:space="preserve">
<g>
	<path d="M72.89,36.43c0,20.09-16.37,36.41-36.5,36.41C16.32,72.84-0.04,56.48,0,36.41C0.04,15.88,16.85-0.25,36.9,0
		C56.42,0.25,72.84,16.1,72.89,36.43z M36.45,12.12c-13.36-0.03-24.3,10.82-24.35,24.15c-0.05,13.48,10.71,24.28,23.99,24.45
		c13.59,0.18,24.59-10.67,24.66-24.2C60.83,23.06,49.94,12.15,36.45,12.12z"/>
	<path d="M266.75,60.71c-2.25,0-4.35,0-6.59,0c-0.38-1.68-0.75-3.33-1.14-5.07c-0.33,0.18-0.54,0.22-0.64,0.35
		c-7.43,9.57-24,6.73-31.18-2.16c-9.04-11.2-6.89-30.93,4.42-38.83c8.52-5.95,21.16-5.39,28.61,1.27c3.35,2.99,5.46,7.29,5.7,11.65
		c-3.26,0-6.52,0-9.85,0c-0.07-0.11-0.2-0.25-0.25-0.41c-1.34-4.32-4.12-7.08-8.71-7.56c-5.2-0.55-9.69,1-12.24,5.79
		c-3.65,6.81-3.78,13.96-0.33,20.87c3.16,6.34,11.98,8.47,17.96,4.64c3.12-1.99,4.33-5.04,4.68-8.85c-3.61,0-7.04,0-10.6,0
		c0-2.7,0-5.16,0-7.74c6.72,0,13.36,0,20.16,0C266.75,43.27,266.75,51.88,266.75,60.71z"/>
	<path d="M208.56,37.88c4.8,1.61,6.27,5.39,6.8,9.74c0.33,2.67,0.38,5.37,0.72,8.04c0.2,1.63,0.69,3.23,1.1,5.1
		c-3.21,0-6.44,0.05-9.66-0.06c-0.35-0.01-0.9-0.86-0.97-1.38c-0.44-2.84-0.76-5.71-1.12-8.57c-0.07-0.57-0.09-1.15-0.2-1.72
		c-0.99-5.53-2.75-7.11-8.31-7.26c-3.21-0.09-6.41-0.02-9.62-0.02c-0.25,0-0.5,0.08-0.97,0.16c0,6.19,0,12.38,0,18.72
		c-3.59,0-6.95,0-10.5,0c0-16.07,0-32.19,0-48.52c0.67-0.03,1.34-0.09,2.02-0.09c7.57-0.01,15.14-0.06,22.71,0.03
		c2.16,0.03,4.41,0.18,6.45,0.83c5.33,1.69,8.49,5.49,9.07,11.05c0.59,5.64-1.02,10.43-6.45,13.25
		C209.29,37.33,209,37.57,208.56,37.88z M186.4,20.39c0,4.6,0,9.1,0,13.67c4.58,0,9.01,0.23,13.41-0.07
		c3.92-0.26,5.69-2.68,5.69-6.84c0-4.05-1.74-6.44-5.59-6.7C195.45,20.16,190.96,20.39,186.4,20.39z"/>
	<path d="M310.69,12.19c0,2.89,0,5.69,0,8.75c-8.49,0-16.98,0-25.59,0c0,3.61,0,6.97,0,10.54c7.75,0,15.47,0,23.35,0
		c0,2.84,0,5.49,0,8.36c-7.79,0-15.52,0-23.36,0c0,4.09,0,7.96,0,12.05c8.71,0,17.33,0,26.06,0c0,3.01,0,5.8,0,8.75
		c-12.22,0-24.42,0-36.74,0c0-16.11,0-32.19,0-48.44C286.48,12.19,298.54,12.19,310.69,12.19z"/>
	<path d="M123.63,60.78c0.27-0.83,0.44-1.43,0.66-2.01c5.7-15.02,11.44-30.03,17.09-45.07c0.49-1.29,1.09-1.79,2.48-1.72
		c2.56,0.11,5.13-0.04,7.69,0.08c0.64,0.03,1.6,0.59,1.81,1.13c5.92,15.62,11.76,31.28,17.61,46.93c0.04,0.11,0,0.25,0,0.64
		c-3.41,0-6.82,0.03-10.24-0.05c-0.34-0.01-0.8-0.72-0.97-1.19c-0.97-2.71-1.91-5.44-2.78-8.18c-0.31-0.99-0.72-1.44-1.86-1.43
		c-5.19,0.07-10.39,0.06-15.58,0c-1.09-0.01-1.59,0.35-1.92,1.36c-0.89,2.74-1.92,5.43-2.81,8.17c-0.33,1.02-0.84,1.4-1.92,1.37
		C129.9,60.73,126.9,60.78,123.63,60.78z M153.67,41.91c-2.06-6.02-4.06-11.84-6.24-18.22c-2.26,6.38-4.33,12.21-6.46,18.22
		C145.27,41.91,149.23,41.91,153.67,41.91z"/>
	<path d="M127.94,12.15c0,3.01,0,5.81,0,8.8c-4.8,0-9.52,0-14.45,0c0,13.29,0,26.39,0,39.67c-3.63,0-7.05,0-10.69,0
		c0-13.08,0-26.19,0-39.55c-4.97,0-9.74,0-14.62,0c0-3.09,0-5.94,0-8.92C101.43,12.15,114.61,12.15,127.94,12.15z"/>
	<path d="M341.58,60.68c-3.73,0-7.1,0-10.69,0c0-13.21,0-26.31,0-39.61c-4.92,0-9.64,0-14.5,0c0-3.03,0-5.88,0-8.89
		c13.19,0,26.41,0,39.72,0c0,2.91,0,5.71,0,8.76c-4.78,0-9.54,0-14.53,0C341.58,34.29,341.58,47.4,341.58,60.68z"/>
	<path d="M36.42,23.96c6.92,0,12.5,5.56,12.5,12.46c0,6.87-5.61,12.47-12.51,12.47c-6.87,0-12.49-5.63-12.47-12.5
		C23.97,29.51,29.53,23.96,36.42,23.96z"/>
</g>
</svg>
