<?xml version="1.0" encoding="utf-8"?>
<!-- Generator: Adobe Illustrator 24.2.3, SVG Export Plug-In . SVG Version: 6.00 Build 0)  -->
<svg version="1.1"
	 id="svg13938" inkscape:version="0.92.0 r15299" sodipodi:docname="ulta.svg" xmlns:cc="http://creativecommons.org/ns#" xmlns:dc="http://purl.org/dc/elements/1.1/" xmlns:inkscape="http://www.inkscape.org/namespaces/inkscape" xmlns:rdf="http://www.w3.org/1999/02/22-rdf-syntax-ns#" xmlns:sodipodi="http://sodipodi.sourceforge.net/DTD/sodipodi-0.dtd" xmlns:svg="http://www.w3.org/2000/svg"
	 xmlns="http://www.w3.org/2000/svg" xmlns:xlink="http://www.w3.org/1999/xlink" x="0px" y="0px" viewBox="0 0 203.69 82.95"
	 style="enable-background:new 0 0 203.69 82.95;" xml:space="preserve">
<g id="layer1" transform="translate(-66.168297,-192.15608)" inkscape:groupmode="layer" inkscape:label="Layer 1">
	<g id="g14016" transform="translate(0.13229217,-0.1322874)">
		<path id="path12966" inkscape:connector-curvature="0" d="M146.99,252.15c0-1.68-0.04-2.83-0.13-4.14c0.35,0.03,3.3,0,4.21,0
			c1.93,0,3.25,0.69,3.25,2.32s-1.63,2.32-2.62,2.47v0.03c0.98,0.05,2.89,0.71,2.89,2.52c0,2.14-1.83,2.99-3.74,2.99
			c-0.85,0-3.64-0.03-3.99,0c0.1-1.32,0.13-2.47,0.13-4.14V252.15z M150.21,248.86c-0.47,0-0.58,0.02-0.79,0.05
			c-0.03,0.74-0.06,1.57-0.06,2.08c0,0.54,0.02,1.02,0.02,1.53h0.72c0.92,0,1.83-0.63,1.83-1.9
			C151.93,249.65,151.48,248.86,150.21,248.86 M150.07,253.37c-0.29,0-0.5,0.01-0.69,0.01c0,0.42-0.02,0.84-0.02,1.45
			c0,0.94,0.03,2.1,0.03,2.63c0.29,0.01,0.53,0.02,0.88,0.02c0.95,0,1.77-0.73,1.77-2.03C152.05,254.06,151.35,253.37,150.07,253.37
			"/>
		<path id="path12970" inkscape:connector-curvature="0" d="M170.51,252.15c0-1.68-0.03-2.83-0.13-4.14c0.94,0.02,5.79,0.04,6.22,0
			c-0.04,0.17-0.04,1.07,0,1.3c-1.22-0.08-3.25-0.07-3.73-0.07c-0.08,1.09,0.01,2.07,0.01,3.15c1.4-0.03,2.43-0.06,3.65-0.12
			c-0.06,0.34-0.05,0.98,0,1.29c-1.22-0.09-2.43-0.13-3.65-0.13c0,0.63-0.01,1.27-0.01,1.91c0,0.63,0,1.15,0.04,1.75
			c1.21,0,2.45,0.06,3.69-0.07c-0.04,0.21-0.04,1.14,0,1.32c-0.58-0.01-5.87-0.03-6.22,0c0.09-1.32,0.13-2.47,0.13-4.14V252.15z"/>
		<path id="path12974" inkscape:connector-curvature="0" d="M201.41,258.34c-0.52-0.03-2.33-0.03-2.78,0
			c-0.33-1.01-0.71-2.05-1.11-3.07c-0.69-0.02-3.17-0.02-3.73,0c-0.43,1.01-0.79,2.03-1.09,3.07c-0.26-0.03-1.25-0.03-1.55,0
			c0.78-1.66,3.19-6.99,4.58-10.4c0.21,0.03,1.01,0.03,1.22,0C198.3,251.35,200.19,255.9,201.41,258.34 M197.15,254.39
			c-0.47-1.21-0.92-2.4-1.43-3.56c-0.55,1.16-1.04,2.35-1.51,3.56H197.15z"/>
		<path id="path12978" inkscape:connector-curvature="0" d="M214.14,254.6c0-1.62,0.03-2.42,0.03-3.51c0-1.58-0.03-2.59-0.06-3.08
			c0.43,0.04,0.88,0.07,1.31,0.07s0.89-0.03,1.32-0.07c-0.2,1.94-0.22,3.5-0.22,5.24c0,3.65,1.12,4.25,3.22,4.25
			c2.57,0,2.75-2.59,2.75-5.37c0-1.38-0.05-2.74-0.13-4.12c0.27,0.04,0.54,0.07,0.82,0.07c0.27,0,0.53-0.03,0.81-0.07
			c-0.1,0.88-0.21,3.02-0.21,5.61c0,3.47-1.63,4.91-4.74,4.91C216.28,258.54,214.15,257.41,214.14,254.6"/>
		<path id="path12982" inkscape:connector-curvature="0" d="M240.68,250.45c0-0.57,0.02-1.05-0.03-1.25c-0.63,0-1.99,0.02-2.96,0.12
			c0.05-0.23,0.05-1.09,0-1.31c1.46,0.04,6.9,0.04,8.26,0c-0.05,0.22-0.05,1.09,0,1.31c-0.87-0.1-2.24-0.11-2.89-0.11
			c-0.03,0.21,0,0.67,0,1.23v3.75c0,1.67,0.03,2.82,0.13,4.14c-0.36-0.03-2.28-0.03-2.64,0c0.1-1.32,0.13-2.47,0.13-4.14V250.45z"/>
		<path id="path12986" inkscape:connector-curvature="0" d="M265.29,252.5c0.87-1.14,1.72-3.03,2.43-4.49
			c0.24,0.03,1.23,0.03,1.51,0c-0.7,1.12-2.34,3.98-3.37,5.87c0,0.48-0.02,0.84-0.02,1.33c0,0.99,0.02,2.01,0.16,3.13
			c-0.45-0.03-2.29-0.03-2.73,0c0.05-0.96,0.19-1.96,0.19-2.89c0-0.46-0.02-0.93-0.03-1.39c-1.11-1.99-2.94-5.2-3.44-6.05
			c0.48,0.03,2.39,0.03,2.88,0c0.74,1.48,1.94,3.8,2.39,4.49H265.29z"/>
		<path id="path12990" inkscape:connector-curvature="0" d="M106.34,198.75c-0.23,5.61-0.23,12.71-0.23,19.06
			c0,11.75,0.15,14.41,2.36,17.3c2.21,2.88,6.32,4.5,11.65,4.5c6.17,0,11.04-3.1,12.72-7.61c0.61-1.63,0.99-3.92,0.99-9.97
			c0-9.61-0.07-19.29-0.68-28.89c1.07,0.14,5.86,0.14,7.01,0l-0.23,3.54c-0.38,6.36-0.61,21.58-0.76,29.04
			c-0.15,8.71-2.74,12.71-7.77,15.81c-3.58,2.22-8.69,3.18-12.79,3.18c-9.14,0-20.11-2.81-21.78-14.26
			c-0.15-1.03-0.15-3.25-0.15-3.92v-20.1c0-3.76-0.15-9.53-0.38-13.3c1.75,0.22,8.76,0.22,10.29,0L106.34,198.75z"/>
		<path id="path12994" inkscape:connector-curvature="0" d="M151.58,213.43c0-3.23,0-3.97-0.23-10.51c-0.08-1.55-0.23-8.17-0.3-9.56
			c1.9,0.36,8.68,0.29,10.58,0c-0.53,11.1-0.76,20.38-0.76,31.71c0,5.15,0.15,9.94,0.23,13.98h1.37c2.21,0,13.17,0,17.66-0.66
			c-0.22,0.81-0.3,4.48,0,5.45c-3.88-0.15-10.43-0.45-14.54-0.45c-4.87,0-8.99,0.15-14.54,0.45c0-1.18,0.53-18.25,0.53-20.09
			L151.58,213.43z"/>
		<path id="path12998" inkscape:connector-curvature="0" d="M201.4,233.74c0,5.6,0.31,8.02,0.54,10.09c-2.21-0.22-8-0.3-10.74,0
			c0.31-5.59,0.76-11.26,0.76-16.85l-0.08-20.53c0-2.72-0.07-5.3-0.15-8.17h-3.81c-0.69,0-7.99,0.15-11.88,0.52
			c0.23-0.88,0.39-5,0.16-5.88c6.01,0.37,14.3,0.36,20.17,0.36c6.32,0,13.1-0.12,20.42-0.49c-0.23,1.25-0.31,4.82-0.08,6
			c-4.49-0.44-9.9-0.52-15.15-0.52c-0.08,2.65-0.16,5.45-0.16,8.24L201.4,233.74z"/>
		<path id="path13002" inkscape:connector-curvature="0" d="M246.34,235.74l-3.18-7.77c-3.26-0.14-15.78-0.14-18.82,0
			c-2.43,5.64-4.86,11.73-6.07,15.91c-0.99-0.15-5.99-0.15-7.06,0l8.81-18.92c7.66-16.56,12.05-26.09,13.87-31.81h4.95
			c3.65,9.75,8.19,20.01,10.92,26.17c2.88,6.38,7.89,17.44,11.31,24.56c-1.14-0.07-10.17-0.07-11.53,0L246.34,235.74z
			 M233.82,205.38l-7.74,18.04c2.66,0.07,5.25,0.21,7.9,0.21c1.49,0,3.76-0.01,6.98-0.21L233.82,205.38z"/>
		<path id="path13006" inkscape:connector-curvature="0" d="M85.37,195.41c-11.87,8.05-18.83,18.16-18.83,30.53
			c0,28.06,33.88,48.8,82.19,48.8c21.65,0,39.74-5.6,53.14-12.5l-0.83,0.01c-16.17,4.87-32.53,6.87-49.34,6.87
			c-48.56,0-82-22.79-82.04-43.86c-0.03-11.68,5.41-21.77,15.72-29.14L85.37,195.41z"/>
		<path id="path13010" inkscape:connector-curvature="0" d="M255.11,193.09c1.65,0,3.04,1.3,3.04,3.01c0,1.74-1.39,3.05-3.04,3.05
			c-1.66,0-3.05-1.3-3.05-3.05C252.06,194.39,253.45,193.09,255.11,193.09 M255.11,198.7c1.4,0,2.49-1.12,2.49-2.6
			c0-1.45-1.09-2.57-2.49-2.57c-1.42,0-2.5,1.12-2.5,2.57C252.61,197.59,253.69,198.7,255.11,198.7 M253.93,194.34h1.37
			c0.84,0,1.24,0.33,1.24,1.01c0,0.64-0.41,0.91-0.93,0.96l1.01,1.56h-0.59l-0.97-1.52h-0.58v1.52h-0.55V194.34z M254.48,195.92
			h0.57c0.49,0,0.93-0.02,0.93-0.58c0-0.47-0.41-0.54-0.78-0.54h-0.73L254.48,195.92z"/>
	</g>
</g>
</svg>
